<?xml version="1.0" encoding="UTF-8" standalone="no" ?>
<!DOCTYPE svg PUBLIC "-//W3C//DTD SVG 1.1//EN" "http://www.w3.org/Graphics/SVG/1.1/DTD/svg11.dtd">
<svg xmlns="http://www.w3.org/2000/svg" xmlns:xlink="http://www.w3.org/1999/xlink" version="1.1" width="1280" height="1024" viewBox="0 0 1280 1024" xml:space="preserve">
<desc>Created with Fabric.js 3.6.3</desc>
<defs>
</defs>
<g transform="matrix(1.9662058371735787 0 0 1.9662058371735787 640.2456813819576 512.1966205837173)" id="background-logo"  >
<rect style="stroke: none; stroke-width: 1; stroke-dasharray: none; stroke-linecap: butt; stroke-dashoffset: 0; stroke-linejoin: miter; stroke-miterlimit: 4; fill: rgb(0,128,128); fill-rule: nonzero; opacity: 1;"  paint-order="stroke"  x="-325" y="-260" rx="0" ry="0" width="650" height="520" />
</g>
<g transform="matrix(1.9699870022450665 0 0 1.9699870022450665 642.2672826084247 721.2282062231644)" id="text-logo-path"  >
<path style="stroke: rgb(0,0,0); stroke-width: 6; stroke-dasharray: none; stroke-linecap: butt; stroke-dashoffset: 0; stroke-linejoin: miter; stroke-miterlimit: 4; fill: rgb(41,149,89); fill-rule: nonzero; opacity: 1;"  paint-order="stroke"  transform=" translate(-165.67499999999998, 8.434999999999999)" d="M 14.91 -24.01 Q 17.71 -24.01 19.83 -23.12 Q 21.95 -22.23 23.1 -20.55 Q 24.26 -18.87 24.26 -16.56 L 24.26 -16.56 Q 24.26 -13.02 21.74 -10.97 Q 19.22 -8.93 14.95 -8.93 L 14.95 -8.93 L 9.35 -8.93 L 9.35 -2.91 L 14.14 -2.91 L 14.14 0 L 1.26 0 L 1.26 -2.91 L 5.78 -2.91 L 5.78 -21.11 L 1.26 -21.11 L 1.26 -24.01 L 14.91 -24.01 Z M 14.77 -11.83 Q 17.36 -11.83 19.02 -12.93 Q 20.69 -14.04 20.69 -16.59 L 20.69 -16.59 Q 20.69 -18.94 19.01 -20.02 Q 17.33 -21.11 14.7 -21.11 L 14.7 -21.11 L 9.35 -21.11 L 9.35 -11.87 L 14.77 -11.83 Z M 41.76 -4.69 L 43.23 -2.45 Q 39.87 0.49 35.56 0.49 L 35.56 0.49 Q 33.22 0.49 31.12 -0.49 Q 29.02 -1.47 27.72 -3.36 Q 26.43 -5.25 26.43 -7.84 L 26.43 -7.84 Q 26.43 -10.61 27.76 -12.67 Q 29.09 -14.74 31.22 -15.84 Q 33.36 -16.94 35.7 -16.94 L 35.7 -16.94 Q 37.77 -16.94 39.39 -16.28 Q 41.02 -15.61 41.95 -14.42 Q 42.88 -13.23 42.88 -11.69 L 42.88 -11.69 Q 42.88 -9.38 40.9 -8.1 Q 38.92 -6.83 36.16 -6.83 L 36.16 -6.83 Q 34.37 -6.83 32.83 -7.19 Q 31.29 -7.56 29.72 -8.26 L 29.72 -8.26 L 29.72 -7.95 Q 29.72 -6.3 30.5 -5.04 Q 31.29 -3.78 32.62 -3.12 Q 33.95 -2.45 35.53 -2.45 L 35.53 -2.45 Q 39.1 -2.45 41.76 -4.69 L 41.76 -4.69 Z M 35.95 -14.21 Q 34.06 -14.21 32.43 -13.13 Q 30.8 -12.04 30.1 -10.19 L 30.1 -10.19 Q 32.76 -9.24 35.42 -9.24 L 35.42 -9.24 Q 37.17 -9.24 38.31 -9.89 Q 39.45 -10.54 39.45 -11.69 L 39.45 -11.69 Q 39.45 -12.81 38.47 -13.51 Q 37.48 -14.21 35.95 -14.21 L 35.95 -14.21 Z M 58.73 -16.94 Q 60.8 -16.94 62.55 -15.86 Q 64.3 -14.77 65.35 -12.83 Q 66.4 -10.89 66.4 -8.4 L 66.4 -8.4 Q 66.4 -5.85 65.26 -3.82 Q 64.12 -1.79 62.16 -0.65 Q 60.2 0.49 57.82 0.49 L 57.82 0.49 Q 54.71 0.49 52.08 -1.89 L 52.08 -1.89 L 52.08 4.87 L 55.9 4.87 L 55.9 7.63 L 45.05 7.63 L 45.05 4.87 L 48.72 4.87 L 48.72 -13.72 L 45.05 -13.72 L 45.05 -16.49 L 52.08 -16.49 L 52.08 -13.3 Q 53.45 -14.98 55.2 -15.96 Q 56.95 -16.94 58.73 -16.94 L 58.73 -16.94 Z M 57.09 -2.45 Q 58.73 -2.45 60.04 -3.2 Q 61.36 -3.96 62.09 -5.32 Q 62.83 -6.69 62.83 -8.44 L 62.83 -8.44 Q 62.83 -10.92 61.41 -12.48 Q 59.99 -14.04 57.79 -14.04 L 57.79 -14.04 Q 56.28 -14.04 54.81 -13.13 Q 53.34 -12.22 52.08 -10.61 L 52.08 -10.61 L 52.08 -4.48 Q 54.6 -2.45 57.09 -2.45 L 57.09 -2.45 Z M 73.85 -20.23 Q 72.73 -20.23 71.96 -20.83 Q 71.19 -21.42 71.19 -22.33 L 71.19 -22.33 Q 71.19 -23.28 71.96 -23.89 Q 72.73 -24.5 73.85 -24.5 L 73.85 -24.5 Q 75.04 -24.5 75.81 -23.89 Q 76.58 -23.28 76.58 -22.33 L 76.58 -22.33 Q 76.58 -21.42 75.81 -20.83 Q 75.04 -20.23 73.85 -20.23 L 73.85 -20.23 Z M 75.95 -2.77 L 79.7 -2.77 L 79.7 0 L 68.81 0 L 68.81 -2.77 L 72.52 -2.77 L 72.52 -13.72 L 68.81 -13.72 L 68.81 -16.49 L 75.95 -16.49 L 75.95 -2.77 Z M 101.92 -2.77 L 105.21 -2.77 L 105.21 0 L 95.48 0 L 95.48 -2.77 L 98.53 -2.77 L 98.53 -9.59 Q 98.53 -11.52 97.56 -12.62 Q 96.6 -13.72 94.82 -13.72 L 94.82 -13.72 Q 91.77 -13.72 88.38 -9.87 L 88.38 -9.87 L 88.38 -2.77 L 91.42 -2.77 L 91.42 0 L 81.24 0 L 81.24 -2.77 L 84.95 -2.77 L 84.95 -13.72 L 81.24 -13.72 L 81.24 -16.49 L 88.38 -16.49 L 88.38 -12.6 Q 90.34 -14.77 92.14 -15.84 Q 93.94 -16.91 96.01 -16.91 L 96.01 -16.91 Q 98.84 -16.91 100.38 -15.09 Q 101.92 -13.27 101.92 -9.7 L 101.92 -9.7 L 101.92 -2.77 Z M 111.76 -20.23 Q 110.64 -20.23 109.87 -20.83 Q 109.1 -21.42 109.1 -22.33 L 109.1 -22.33 Q 109.1 -23.28 109.87 -23.89 Q 110.64 -24.5 111.76 -24.5 L 111.76 -24.5 Q 112.95 -24.5 113.72 -23.89 Q 114.49 -23.28 114.49 -22.33 L 114.49 -22.33 Q 114.49 -21.42 113.72 -20.83 Q 112.95 -20.23 111.76 -20.23 L 111.76 -20.23 Z M 113.86 -2.77 L 117.6 -2.77 L 117.6 0 L 106.72 0 L 106.72 -2.77 L 110.43 -2.77 L 110.43 -13.72 L 106.72 -13.72 L 106.72 -16.49 L 113.86 -16.49 L 113.86 -2.77 Z M 134.72 -4.69 L 136.19 -2.45 Q 132.83 0.49 128.52 0.49 L 128.52 0.49 Q 126.18 0.49 124.08 -0.49 Q 121.98 -1.47 120.68 -3.36 Q 119.39 -5.25 119.39 -7.84 L 119.39 -7.84 Q 119.39 -10.61 120.72 -12.67 Q 122.05 -14.74 124.18 -15.84 Q 126.32 -16.94 128.66 -16.94 L 128.66 -16.94 Q 130.73 -16.94 132.35 -16.28 Q 133.98 -15.61 134.91 -14.42 Q 135.84 -13.23 135.84 -11.69 L 135.84 -11.69 Q 135.84 -9.38 133.86 -8.1 Q 131.88 -6.83 129.12 -6.83 L 129.12 -6.83 Q 127.33 -6.83 125.79 -7.19 Q 124.25 -7.56 122.68 -8.26 L 122.68 -8.26 L 122.68 -7.95 Q 122.68 -6.3 123.46 -5.04 Q 124.25 -3.78 125.58 -3.12 Q 126.91 -2.45 128.49 -2.45 L 128.49 -2.45 Q 132.06 -2.45 134.72 -4.69 L 134.72 -4.69 Z M 128.91 -14.21 Q 127.02 -14.21 125.39 -13.13 Q 123.76 -12.04 123.06 -10.19 L 123.06 -10.19 Q 125.72 -9.24 128.38 -9.24 L 128.38 -9.24 Q 130.13 -9.24 131.27 -9.89 Q 132.41 -10.54 132.41 -11.69 L 132.41 -11.69 Q 132.41 -12.81 131.43 -13.51 Q 130.45 -14.21 128.91 -14.21 L 128.91 -14.21 Z M 153.55 -16.91 L 155.02 -16.91 L 155.02 -9.91 L 151.97 -9.91 L 151.97 -13.51 Q 150.61 -13.51 149 -12.5 Q 147.39 -11.48 145.67 -9.63 L 145.67 -9.63 L 145.67 -2.77 L 149.42 -2.77 L 149.42 0 L 138.53 0 L 138.53 -2.77 L 142.24 -2.77 L 142.24 -13.72 L 138.53 -13.72 L 138.53 -16.49 L 145.67 -16.49 L 145.67 -12.36 Q 147.53 -14.49 149.54 -15.7 Q 151.55 -16.91 153.55 -16.91 L 153.55 -16.91 Z M 176.23 -2.91 L 176.93 -0.42 Q 175.77 0.28 174.23 0.28 L 174.23 0.28 Q 172.94 0.28 172.04 -0.47 Q 171.15 -1.23 170.8 -2.63 L 170.8 -2.63 Q 167.3 0.49 163.87 0.49 L 163.87 0.49 Q 161.46 0.49 159.78 -0.88 Q 158.1 -2.24 158.1 -4.69 L 158.1 -4.69 Q 158.1 -6.37 159.04 -7.61 Q 159.99 -8.86 161.58 -9.5 Q 163.17 -10.15 165.03 -10.15 L 165.03 -10.15 Q 166.6 -10.15 167.93 -9.85 Q 169.26 -9.56 170.66 -9 L 170.66 -9 L 170.66 -10.54 Q 170.66 -12.32 169.47 -13.16 Q 168.28 -14 166.36 -14 L 166.36 -14 Q 163.63 -14 159.78 -12.5 L 159.78 -12.5 L 159.08 -15.16 Q 163.21 -16.91 166.78 -16.91 L 166.78 -16.91 Q 170.17 -16.91 172.04 -15.24 Q 173.92 -13.58 173.92 -10.4 L 173.92 -10.4 L 173.92 -4.34 Q 173.92 -2.63 175.14 -2.63 L 175.14 -2.63 Q 175.67 -2.63 176.23 -2.91 L 176.23 -2.91 Z M 161.49 -4.87 Q 161.49 -3.68 162.44 -3.03 Q 163.38 -2.38 164.75 -2.38 L 164.75 -2.38 Q 165.94 -2.38 167.48 -3.01 Q 169.02 -3.64 170.66 -4.87 L 170.66 -4.87 L 170.66 -6.72 Q 168.28 -7.56 165.62 -7.63 L 165.62 -7.63 Q 163.91 -7.63 162.7 -6.91 Q 161.49 -6.2 161.49 -4.87 L 161.49 -4.87 Z M 217.18 -24.01 L 217.18 -21.11 L 213.15 -21.11 L 203.31 0.46 L 201.53 0.46 L 191.77 -21.11 L 187.74 -21.11 L 187.74 -24.01 L 199.4 -24.01 L 199.4 -21.11 L 195.58 -21.11 L 202.65 -4.66 L 209.58 -21.11 L 205.34 -21.11 L 205.34 -24.01 L 217.18 -24.01 Z M 224.95 0.49 Q 222.53 0.49 220.43 -0.6 Q 218.33 -1.68 217.09 -3.68 Q 215.85 -5.67 215.85 -8.23 L 215.85 -8.23 Q 215.85 -10.82 217.09 -12.79 Q 218.33 -14.77 220.43 -15.86 Q 222.53 -16.94 224.95 -16.94 L 224.95 -16.94 Q 227.33 -16.94 229.41 -15.86 Q 231.49 -14.77 232.75 -12.78 Q 234.01 -10.78 234.01 -8.23 L 234.01 -8.23 Q 234.01 -5.67 232.79 -3.68 Q 231.56 -1.68 229.48 -0.6 Q 227.4 0.49 224.95 0.49 L 224.95 0.49 Z M 224.95 -2.28 Q 226.52 -2.28 227.78 -3.01 Q 229.04 -3.75 229.76 -5.09 Q 230.48 -6.44 230.48 -8.23 L 230.48 -8.23 Q 230.48 -10.01 229.76 -11.36 Q 229.04 -12.71 227.78 -13.44 Q 226.52 -14.18 224.95 -14.18 L 224.95 -14.18 Q 222.53 -14.18 220.97 -12.55 Q 219.42 -10.92 219.42 -8.23 L 219.42 -8.23 Q 219.42 -5.53 220.97 -3.9 Q 222.53 -2.28 224.95 -2.28 L 224.95 -2.28 Z M 243.11 -2.77 L 246.93 -2.77 L 246.93 0 L 236.01 0 L 236.01 -2.77 L 239.68 -2.77 L 239.68 -21.25 L 236.01 -21.25 L 236.01 -24.01 L 243.11 -24.01 L 243.11 -2.77 Z M 253.47 -20.23 Q 252.35 -20.23 251.58 -20.83 Q 250.81 -21.42 250.81 -22.33 L 250.81 -22.33 Q 250.81 -23.28 251.58 -23.89 Q 252.35 -24.5 253.47 -24.5 L 253.47 -24.5 Q 254.66 -24.5 255.43 -23.89 Q 256.2 -23.28 256.2 -22.33 L 256.2 -22.33 Q 256.2 -21.42 255.43 -20.83 Q 254.66 -20.23 253.47 -20.23 L 253.47 -20.23 Z M 255.57 -2.77 L 259.31 -2.77 L 259.31 0 L 248.43 0 L 248.43 -2.77 L 252.14 -2.77 L 252.14 -13.72 L 248.43 -13.72 L 248.43 -16.49 L 255.57 -16.49 L 255.57 -2.77 Z M 281.54 -2.77 L 284.83 -2.77 L 284.83 0 L 275.1 0 L 275.1 -2.77 L 278.15 -2.77 L 278.15 -9.59 Q 278.15 -11.52 277.18 -12.62 Q 276.22 -13.72 274.44 -13.72 L 274.44 -13.72 Q 271.39 -13.72 268 -9.87 L 268 -9.87 L 268 -2.77 L 271.04 -2.77 L 271.04 0 L 260.86 0 L 260.86 -2.77 L 264.57 -2.77 L 264.57 -13.72 L 260.86 -13.72 L 260.86 -16.49 L 268 -16.49 L 268 -12.6 Q 269.96 -14.77 271.76 -15.84 Q 273.56 -16.91 275.63 -16.91 L 275.63 -16.91 Q 278.46 -16.91 280 -15.09 Q 281.54 -13.27 281.54 -9.7 L 281.54 -9.7 L 281.54 -2.77 Z M 298.94 -3.75 L 300.13 -1.16 Q 298.83 -0.39 297.59 0.04 Q 296.35 0.46 294.74 0.46 L 294.74 0.46 Q 292.04 0.46 290.45 -1.24 Q 288.86 -2.94 288.86 -6.09 L 288.86 -6.09 L 288.86 -13.72 L 285.18 -13.72 L 285.18 -16.49 L 288.86 -16.49 L 288.86 -21.07 L 292.29 -21.07 L 292.29 -16.49 L 297.75 -16.49 L 297.75 -13.72 L 292.29 -13.72 L 292.29 -6.06 Q 292.29 -4.27 293.09 -3.43 Q 293.9 -2.59 295.26 -2.59 L 295.26 -2.59 Q 296.24 -2.59 297.12 -2.89 Q 297.99 -3.19 298.94 -3.75 L 298.94 -3.75 Z M 306.22 -20.23 Q 305.1 -20.23 304.33 -20.83 Q 303.56 -21.42 303.56 -22.33 L 303.56 -22.33 Q 303.56 -23.28 304.33 -23.89 Q 305.1 -24.5 306.22 -24.5 L 306.22 -24.5 Q 307.41 -24.5 308.18 -23.89 Q 308.95 -23.28 308.95 -22.33 L 308.95 -22.33 Q 308.95 -21.42 308.18 -20.83 Q 307.41 -20.23 306.22 -20.23 L 306.22 -20.23 Z M 308.32 -2.77 L 312.06 -2.77 L 312.06 0 L 301.18 0 L 301.18 -2.77 L 304.89 -2.77 L 304.89 -13.72 L 301.18 -13.72 L 301.18 -16.49 L 308.32 -16.49 L 308.32 -2.77 Z M 328.62 -16.91 L 330.09 -16.91 L 330.09 -9.91 L 327.04 -9.91 L 327.04 -13.51 Q 325.68 -13.51 324.07 -12.5 Q 322.46 -11.48 320.74 -9.63 L 320.74 -9.63 L 320.74 -2.77 L 324.49 -2.77 L 324.49 0 L 313.6 0 L 313.6 -2.77 L 317.31 -2.77 L 317.31 -13.72 L 313.6 -13.72 L 313.6 -16.49 L 320.74 -16.49 L 320.74 -12.36 Q 322.6 -14.49 324.61 -15.7 Q 326.62 -16.91 328.62 -16.91 L 328.62 -16.91 Z" stroke-linecap="round" />
</g>
<g transform="matrix(1.9699870022450665 0 0 1.9699870022450665 608.8321415583679 792.7209756176283)" id="tagline-11cbc078-54a3-46df-8674-0f8475f5a7e0-logo-path"  >
<path style="stroke: rgb(0,0,0); stroke-width: 2; stroke-dasharray: none; stroke-linecap: butt; stroke-dashoffset: 0; stroke-linejoin: miter; stroke-miterlimit: 4; fill: rgb(41,149,89); fill-rule: nonzero; opacity: 1;"  paint-order="stroke"  transform=" translate(-64.93499999999999, 10.885)" d="M 9.33 -13.97 L 9.33 -13.97 L 8.15 -12.74 Q 6.64 -14.19 5.23 -14.19 L 5.23 -14.19 Q 4.32 -14.19 3.68 -13.59 Q 3.03 -13 3.03 -12.18 L 3.03 -12.18 Q 3.03 -11.5 3.57 -10.86 L 3.57 -10.86 Q 4.1 -10.19 5.8 -9.32 L 5.8 -9.32 Q 7.88 -8.25 8.62 -7.25 L 8.62 -7.25 Q 9.35 -6.24 9.35 -4.97 L 9.35 -4.97 Q 9.35 -3.2 8.1 -1.97 Q 6.86 -0.74 4.98 -0.74 L 4.98 -0.74 Q 3.73 -0.74 2.59 -1.27 Q 1.45 -1.81 0.71 -2.77 L 0.71 -2.77 L 1.89 -4.1 Q 3.31 -2.49 4.9 -2.49 L 4.9 -2.49 Q 6.01 -2.49 6.8 -3.21 Q 7.58 -3.93 7.58 -4.89 L 7.58 -4.89 Q 7.58 -5.7 7.07 -6.31 L 7.07 -6.31 Q 6.55 -6.93 4.73 -7.87 L 4.73 -7.87 Q 2.77 -8.86 2.07 -9.86 L 2.07 -9.86 Q 1.36 -10.84 1.36 -12.1 L 1.36 -12.1 Q 1.36 -13.75 2.49 -14.84 Q 3.61 -15.93 5.31 -15.93 L 5.31 -15.93 Q 7.3 -15.93 9.33 -13.97 Z M 13.26 -21.16 L 13.26 -21.16 Q 13.9 -21.16 14.35 -20.71 Q 14.81 -20.26 14.81 -19.63 L 14.81 -19.63 Q 14.81 -19 14.35 -18.54 Q 13.9 -18.09 13.26 -18.09 L 13.26 -18.09 Q 12.63 -18.09 12.18 -18.54 Q 11.73 -19 11.73 -19.63 L 11.73 -19.63 Q 11.73 -20.26 12.18 -20.71 Q 12.63 -21.16 13.26 -21.16 Z M 12.34 -0.75 L 12.34 -15.21 L 14.2 -15.21 L 14.2 -0.75 L 12.34 -0.75 Z M 18.04 -0.75 L 18.04 -6.24 L 18.01 -7.78 Q 17.97 -8.91 18.1 -9.7 L 18.1 -9.7 Q 18.39 -12.19 19.37 -13.35 L 19.37 -13.35 Q 20.32 -14.37 21.3 -14.92 L 21.3 -14.92 Q 22.94 -15.62 25.04 -15.58 L 25.04 -15.58 Q 26.67 -15.58 28.06 -14.76 Q 29.45 -13.94 30.05 -12.54 Q 30.64 -11.15 30.64 -8.19 L 30.64 -8.19 L 30.64 -0.75 L 28.79 -0.75 L 28.79 -7.65 Q 28.79 -10.15 28.58 -11 L 28.58 -11 Q 28.25 -12.43 27.28 -13.03 Q 26.3 -13.63 24.39 -13.63 L 24.39 -13.63 Q 22.7 -13.63 21.38 -12.66 Q 20.07 -11.68 20.16 -9.99 L 20.16 -9.99 Q 19.91 -8.91 19.91 -6.05 L 19.91 -6.05 L 19.91 -0.75 L 18.04 -0.75 Z M 48.63 -12.55 L 48.63 -12.55 L 47.16 -11.63 Q 45.25 -14.19 41.94 -14.19 L 41.94 -14.19 Q 39.29 -14.19 37.54 -12.48 Q 35.79 -10.78 35.79 -8.35 L 35.79 -8.35 Q 35.79 -6.76 36.6 -5.36 Q 37.4 -3.96 38.8 -3.19 Q 40.2 -2.43 41.94 -2.43 L 41.94 -2.43 Q 45.14 -2.43 47.16 -4.96 L 47.16 -4.96 L 48.63 -3.99 Q 47.59 -2.44 45.85 -1.59 Q 44.1 -0.74 41.86 -0.74 L 41.86 -0.74 Q 38.44 -0.74 36.18 -2.91 Q 33.92 -5.09 33.92 -8.2 L 33.92 -8.2 Q 33.92 -10.31 34.98 -12.11 Q 36.04 -13.91 37.88 -14.92 Q 39.72 -15.93 42.02 -15.93 L 42.02 -15.93 Q 43.44 -15.93 44.78 -15.49 Q 46.12 -15.06 47.05 -14.35 Q 47.99 -13.65 48.63 -12.55 Z M 64.36 -5.89 L 64.36 -5.89 L 65.92 -5.06 Q 65.17 -3.55 64.15 -2.62 Q 63.14 -1.7 61.87 -1.22 Q 60.6 -0.74 59.01 -0.74 L 59.01 -0.74 Q 55.48 -0.74 53.49 -3.05 Q 51.5 -5.37 51.5 -8.28 L 51.5 -8.28 Q 51.5 -11.03 53.18 -13.18 L 53.18 -13.18 Q 55.32 -15.93 58.92 -15.93 L 58.92 -15.93 Q 62.6 -15.93 64.81 -13.12 L 64.81 -13.12 Q 66.38 -11.14 66.39 -8.19 L 66.39 -8.19 L 53.41 -8.19 Q 53.46 -5.66 55.02 -4.04 Q 56.57 -2.43 58.85 -2.43 L 58.85 -2.43 Q 59.96 -2.43 61 -2.81 Q 62.04 -3.2 62.77 -3.84 Q 63.51 -4.47 64.36 -5.89 Z M 53.6 -9.78 L 64.36 -9.78 Q 63.99 -11.27 63.28 -12.16 Q 62.57 -13.05 61.4 -13.6 Q 60.22 -14.15 58.93 -14.15 L 58.93 -14.15 Q 56.81 -14.15 55.28 -12.77 L 55.28 -12.77 Q 54.17 -11.77 53.6 -9.78 L 53.6 -9.78 Z M 78.19 -13.99 L 78.19 -13.99 L 76.31 -13.99 Q 76.39 -16.9 78.24 -18.76 Q 80.1 -20.62 82.82 -20.62 L 82.82 -20.62 Q 85.52 -20.62 87.18 -18.88 Q 88.84 -17.14 88.84 -14.77 L 88.84 -14.77 Q 88.84 -13.1 88.05 -11.65 Q 87.26 -10.19 84.96 -7.7 L 84.96 -7.7 L 80.1 -2.72 L 89.12 -2.72 L 89.12 -0.83 L 75.85 -0.83 L 83.31 -8.64 Q 85.59 -11.07 86.27 -12.25 Q 86.95 -13.42 86.95 -14.73 L 86.95 -14.73 Q 86.95 -16.37 85.72 -17.56 Q 84.49 -18.75 82.71 -18.75 L 82.71 -18.75 Q 80.84 -18.75 79.6 -17.49 Q 78.36 -16.24 78.19 -13.99 Z M 90.97 -10.39 L 90.97 -10.39 Q 90.97 -14.26 91.8 -16.37 Q 92.63 -18.48 94.14 -19.58 Q 95.66 -20.67 97.53 -20.67 L 97.53 -20.67 Q 99.43 -20.67 100.97 -19.57 Q 102.52 -18.47 103.41 -16.28 Q 104.31 -14.08 104.31 -10.39 L 104.31 -10.39 Q 104.31 -6.71 103.43 -4.77 Q 102.54 -2.82 100.99 -1.71 Q 99.43 -0.61 97.53 -0.61 L 97.53 -0.61 Q 95.66 -0.61 94.16 -1.68 Q 92.65 -2.76 91.81 -4.89 Q 90.97 -7.03 90.97 -10.39 Z M 92.81 -10.35 L 92.81 -10.35 Q 92.81 -7.04 93.41 -5.59 Q 94 -4.14 95.16 -3.26 Q 96.32 -2.37 97.6 -2.37 L 97.6 -2.37 Q 98.89 -2.37 100.02 -3.23 Q 101.16 -4.09 101.74 -5.8 L 101.74 -5.8 Q 102.46 -7.88 102.46 -10.35 L 102.46 -10.35 Q 102.46 -13.29 101.82 -15.17 Q 101.17 -17.06 100.02 -17.93 Q 98.88 -18.8 97.6 -18.8 L 97.6 -18.8 Q 96.29 -18.8 95.15 -17.93 Q 94 -17.06 93.41 -15.37 Q 92.81 -13.67 92.81 -10.35 Z M 106.92 -18.42 L 108.09 -20.33 L 111.93 -20.33 L 111.93 -0.78 L 109.99 -0.78 L 109.99 -18.42 L 106.92 -18.42 Z M 118.72 -15.64 L 118.72 -15.64 L 116.73 -15.64 Q 117.28 -18.06 118.82 -19.37 Q 120.35 -20.67 122.46 -20.67 L 122.46 -20.67 Q 123.99 -20.67 125.31 -19.97 Q 126.63 -19.27 127.36 -18.09 Q 128.09 -16.9 128.09 -15.62 L 128.09 -15.62 Q 128.09 -13.09 125.57 -11.61 L 125.57 -11.61 Q 126.98 -11.05 127.88 -9.94 L 127.88 -9.94 Q 129.16 -8.38 129.16 -6.93 L 129.16 -6.93 Q 129.16 -5.27 128.28 -3.76 Q 127.41 -2.25 125.89 -1.43 Q 124.37 -0.61 122.5 -0.61 L 122.5 -0.61 Q 119.97 -0.61 118.29 -2.06 Q 116.61 -3.52 116.08 -6.33 L 116.08 -6.33 L 117.99 -6.33 Q 118.51 -4.43 119.46 -3.59 L 119.46 -3.59 Q 120.66 -2.5 122.52 -2.5 L 122.52 -2.5 Q 124.65 -2.5 125.94 -3.78 Q 127.23 -5.05 127.23 -6.78 L 127.23 -6.78 Q 127.3 -7.7 126.64 -8.7 Q 125.98 -9.7 124.88 -10.07 Q 123.77 -10.44 121.51 -10.56 L 121.51 -10.56 L 121.51 -12.37 Q 122.86 -12.37 123.95 -12.83 Q 125.05 -13.29 125.55 -14.03 Q 126.05 -14.77 126.05 -15.62 L 126.05 -15.62 Q 126.05 -16.9 125.03 -17.84 Q 124 -18.77 122.46 -18.77 L 122.46 -18.77 Q 121.2 -18.77 120.27 -18.06 Q 119.35 -17.35 118.72 -15.64 Z" stroke-linecap="round" />
</g>
<g transform="matrix(1.9699870022450665 0 0 1.9699870022450665 640.5318489274499 369.43033743091485)" id="tagline-78d6efe7-aedc-427c-a98e-80aea77b3f01-logo-path"  >
<path style="stroke: none; stroke-width: 0; stroke-dasharray: none; stroke-linecap: butt; stroke-dashoffset: 0; stroke-linejoin: miter; stroke-miterlimit: 4; fill: rgb(0,0,0); fill-rule: nonzero; opacity: 1;"  paint-order="stroke"  transform=" translate(-76.67, 45.44)" d="M -5.11 -59.38 L -5.11 -59.38 Q -5.11 -71.53 8.45 -78.91 Q 22.02 -86.29 40.09 -86.29 Q 58.16 -86.29 67.46 -80.27 Q 76.76 -74.26 76.76 -61.65 L 76.76 -61.65 Q 76.76 -45.09 63.57 -36.66 L 63.57 -36.66 Q 56.42 -32.02 46.43 -32.02 L 46.43 -32.02 Q 40.09 -32.02 35.56 -33.93 L 35.56 -33.93 Q 30.56 -13.6 29.52 -1.34 L 29.52 -1.34 Q 22.49 0.7 13.95 0.7 L 13.95 0.7 Q 11.91 0.7 10.92 0.35 L 10.92 0.35 Q 11.5 -7.15 17.66 -30.82 Q 23.82 -54.5 23.82 -61.65 L 23.82 -61.65 Q 23.82 -63.92 23.27 -64.99 Q 22.72 -66.07 20.92 -68.04 L 20.92 -68.04 L 21.03 -68.91 Q 27.37 -72.57 36.78 -72.57 L 36.78 -72.57 Q 40.44 -72.57 42.24 -71.99 L 42.24 -71.99 Q 42.82 -70.83 42.82 -67.08 Q 42.82 -63.33 37.13 -40.21 L 37.13 -40.21 Q 39.74 -39.16 43.06 -39.16 L 43.06 -39.16 Q 48.75 -39.16 52.47 -43.09 Q 56.19 -47.01 57.32 -51.6 Q 58.45 -56.19 58.45 -61.3 L 58.45 -61.3 Q 58.45 -70.71 53.37 -74.93 Q 48.29 -79.14 37.01 -79.14 L 37.01 -79.14 Q 22.25 -79.14 12.49 -73.18 Q 2.73 -67.23 2.73 -60.66 L 2.73 -60.66 Q 2.73 -57.35 5.29 -55.26 Q 7.84 -53.17 10.58 -52.47 L 10.58 -52.47 Q 10.11 -48.17 7.61 -43.7 L 7.61 -43.7 Q 3.08 -44.28 -1.02 -48.43 Q -5.11 -52.59 -5.11 -59.38 Z M 80.1 -42.77 Q 72.86 -49.27 72.86 -58.74 Q 72.86 -68.22 81.75 -76.35 Q 90.64 -84.49 102.03 -84.49 L 102.03 -84.49 Q 119.52 -84.49 119.52 -62.7 L 119.52 -62.7 Q 119.52 -57.23 118.71 -51.54 L 118.71 -51.54 L 117.9 -44.51 Q 123.82 -45.96 127.37 -47.94 L 127.37 -47.94 L 128.7 -48.69 Q 131.2 -46.19 131.32 -41.08 L 131.32 -41.08 Q 123.94 -37.65 116.79 -36.32 L 116.79 -36.32 Q 115.34 -25.74 115.34 -19.76 L 115.34 -19.76 Q 115.34 -13.54 119.06 -13.54 Q 122.78 -13.54 127.83 -19.03 Q 132.89 -24.52 137.27 -34.05 Q 141.66 -43.58 142.65 -53.34 L 142.65 -53.34 Q 142.65 -63.22 132.54 -75.83 L 132.54 -75.83 Q 134.92 -80.94 138.73 -85.04 Q 142.53 -89.13 145.15 -90.7 L 145.15 -90.7 L 147.76 -92.33 Q 152.18 -92.33 155.32 -85.97 Q 158.45 -79.6 158.45 -71.88 L 158.45 -71.88 Q 158.45 -58.57 150.73 -41.2 Q 143 -23.82 131.43 -11.19 Q 119.87 1.45 110.11 1.45 L 110.11 1.45 Q 103.78 1.45 100.29 -3.14 Q 96.8 -7.73 96.8 -14.15 Q 96.8 -20.57 98.37 -35.21 L 98.37 -35.21 Q 87.33 -36.26 80.1 -42.77 Z M 85.44 -69.67 Q 80.24 -65.19 80.24 -58.6 Q 80.24 -52 85.79 -47.53 Q 91.34 -43.06 99.19 -43.06 L 99.19 -43.06 Q 100.99 -56.36 100.99 -62.58 Q 100.99 -68.8 99.68 -71.47 Q 98.37 -74.14 94.51 -74.14 Q 90.64 -74.14 85.44 -69.67 Z" stroke-linecap="round" />
</g>
<g transform="matrix(1.9699870022450665 0 0 1.9699870022450665 640.5005869266818 371.2352001226318)" id="tagline-e23f1e76-a5f0-4506-874c-a87f1f222e23-logo-path"  >
<path style="stroke: none; stroke-width: 0; stroke-dasharray: none; stroke-linecap: butt; stroke-dashoffset: 0; stroke-linejoin: miter; stroke-miterlimit: 4; fill: rgb(41,149,89); fill-rule: nonzero; opacity: 1;"  paint-order="stroke"  transform=" translate(-68.295, 40.474999999999994)" d="M -4.55 -52.9 L -4.55 -52.9 Q -4.55 -63.71 7.53 -70.29 Q 19.62 -76.86 35.71 -76.86 Q 51.81 -76.86 60.09 -71.5 Q 68.37 -66.15 68.37 -54.92 L 68.37 -54.92 Q 68.37 -40.16 56.62 -32.66 L 56.62 -32.66 Q 50.26 -28.52 41.35 -28.52 L 41.35 -28.52 Q 35.71 -28.52 31.68 -30.23 L 31.68 -30.23 Q 27.22 -12.11 26.29 -1.19 L 26.29 -1.19 Q 20.03 0.62 12.42 0.62 L 12.42 0.62 Q 10.61 0.62 9.73 0.31 L 9.73 0.31 Q 10.25 -6.37 15.73 -27.46 Q 21.22 -48.55 21.22 -54.92 L 21.22 -54.92 Q 21.22 -56.93 20.73 -57.89 Q 20.24 -58.85 18.63 -60.61 L 18.63 -60.61 L 18.74 -61.38 Q 24.38 -64.65 32.76 -64.65 L 32.76 -64.65 Q 36.02 -64.65 37.63 -64.13 L 37.63 -64.13 Q 38.15 -63.09 38.15 -59.75 Q 38.15 -56.42 33.07 -35.82 L 33.07 -35.82 Q 35.4 -34.88 38.35 -34.88 L 38.35 -34.88 Q 43.42 -34.88 46.74 -38.38 Q 50.05 -41.87 51.06 -45.96 Q 52.07 -50.05 52.07 -54.6 L 52.07 -54.6 Q 52.07 -62.99 47.54 -66.74 Q 43.01 -70.49 32.97 -70.49 L 32.97 -70.49 Q 19.82 -70.49 11.13 -65.19 Q 2.43 -59.88 2.43 -54.04 L 2.43 -54.04 Q 2.43 -51.08 4.71 -49.22 Q 6.99 -47.36 9.42 -46.74 L 9.42 -46.74 Q 9.01 -42.91 6.78 -38.92 L 6.78 -38.92 Q 2.74 -39.44 -0.91 -43.14 Q -4.55 -46.84 -4.55 -52.9 Z M 71.35 -38.09 Q 64.9 -43.89 64.9 -52.33 Q 64.9 -60.76 72.82 -68.01 Q 80.74 -75.26 90.89 -75.26 L 90.89 -75.26 Q 106.47 -75.26 106.47 -55.85 L 106.47 -55.85 Q 106.47 -50.98 105.74 -45.91 L 105.74 -45.91 L 105.02 -39.65 Q 110.3 -40.94 113.45 -42.7 L 113.45 -42.7 L 114.64 -43.37 Q 116.87 -41.15 116.97 -36.59 L 116.97 -36.59 Q 110.4 -33.54 104.03 -32.35 L 104.03 -32.35 Q 102.74 -22.93 102.74 -17.6 L 102.74 -17.6 Q 102.74 -12.06 106.05 -12.06 Q 109.36 -12.06 113.87 -16.95 Q 118.37 -21.84 122.28 -30.33 Q 126.19 -38.82 127.07 -47.51 L 127.07 -47.51 Q 127.07 -56.31 118.06 -67.54 L 118.06 -67.54 Q 120.18 -72.1 123.57 -75.75 Q 126.96 -79.4 129.29 -80.79 L 129.29 -80.79 L 131.62 -82.24 Q 135.55 -82.24 138.35 -76.58 Q 141.14 -70.91 141.14 -64.02 L 141.14 -64.02 Q 141.14 -52.17 134.26 -36.7 Q 127.38 -21.22 117.08 -9.96 Q 106.78 1.29 98.08 1.29 L 98.08 1.29 Q 92.44 1.29 89.33 -2.79 Q 86.23 -6.88 86.23 -12.6 Q 86.23 -18.32 87.63 -31.37 L 87.63 -31.37 Q 77.79 -32.3 71.35 -38.09 Z M 76.11 -62.06 Q 71.48 -58.07 71.48 -52.2 Q 71.48 -46.32 76.42 -42.34 Q 81.36 -38.35 88.35 -38.35 L 88.35 -38.35 Q 89.96 -50.21 89.96 -55.74 Q 89.96 -61.28 88.79 -63.66 Q 87.63 -66.04 84.18 -66.04 Q 80.74 -66.04 76.11 -62.06 Z" stroke-linecap="round" />
</g>
<g transform="matrix(1.9699870022450665 0 0 1.9699870022450665 640.2456813819576 372.3847051960727)" id="logo-logo"  >
<g style=""  paint-order="stroke"   >
		<g transform="matrix(0.15318398148775803 0 0 -0.15318398148775803 -0.5032542647193736 -117.08079524956094)"  >
<path style="stroke: none; stroke-width: 1; stroke-dasharray: none; stroke-linecap: butt; stroke-dashoffset: 0; stroke-linejoin: miter; stroke-miterlimit: 4; fill: rgb(168,217,169); fill-rule: nonzero; opacity: 1;"  paint-order="stroke"  transform=" translate(-1106.9947069828609, -1254.185)" d="m 1105.81 1435.83 c 0 0 -142.134 -205.29 2.94 -363.29 c 0 0 140.85 143.76 -2.94 363.29" stroke-linecap="round" />
</g>
		<g transform="matrix(0.15318398148775803 0 0 -0.15318398148775803 -24.86516340768219 -101.21854382566963)"  >
<path style="stroke: none; stroke-width: 1; stroke-dasharray: none; stroke-linecap: butt; stroke-dashoffset: 0; stroke-linejoin: miter; stroke-miterlimit: 4; fill: rgb(0,0,0); fill-rule: nonzero; opacity: 1;"  paint-order="stroke"  transform=" translate(-947.9577834980789, -1150.6346726757365)" d="m 1037.86 1075.02 c 0 0 -81.801 -59.62 -187.544 158.67 c 0 0 241.004 -70.88 187.544 -158.67" stroke-linecap="round" />
</g>
		<g transform="matrix(0.15318398148775803 0 0 -0.15318398148775803 23.68765096896516 -101.21854382566963)"  >
<path style="stroke: none; stroke-width: 1; stroke-dasharray: none; stroke-linecap: butt; stroke-dashoffset: 0; stroke-linejoin: miter; stroke-miterlimit: 4; fill: rgb(0,0,0); fill-rule: nonzero; opacity: 1;"  paint-order="stroke"  transform=" translate(-1264.9153002376966, -1150.6346726757365)" d="m 1175.01 1075.02 c 0 0 81.8 -59.62 187.55 158.67 c 0 0 -241.01 -70.88 -187.55 -158.67" stroke-linecap="round" />
</g>
		<g transform="matrix(0.15318398148775803 0 0 -0.15318398148775803 -37.86152858663485 -66.67622849770208)"  >
<path style="stroke: none; stroke-width: 1; stroke-dasharray: none; stroke-linecap: butt; stroke-dashoffset: 0; stroke-linejoin: miter; stroke-miterlimit: 4; fill: rgb(0,0,0); fill-rule: nonzero; opacity: 1;"  paint-order="stroke"  transform=" translate(-863.1162416297386, -925.1390628052743)" d="m 953.02 1000.76 c 0 0 -81.805 59.62 -187.547 -158.682 c 0 0 241.007 70.891 187.547 158.682" stroke-linecap="round" />
</g>
		<g transform="matrix(0.15318398148775803 0 0 -0.15318398148775803 36.99242430247722 -66.67622849770208)"  >
<path style="stroke: none; stroke-width: 1; stroke-dasharray: none; stroke-linecap: butt; stroke-dashoffset: 0; stroke-linejoin: miter; stroke-miterlimit: 4; fill: rgb(0,0,0); fill-rule: nonzero; opacity: 1;"  paint-order="stroke"  transform=" translate(-1351.7701606760597, -925.1390628052743)" d="m 1261.87 1000.76 c 0 0 81.8 59.62 187.54 -158.682 c 0 0 -241 70.891 -187.54 158.682" stroke-linecap="round" />
</g>
		<g transform="matrix(0.15318398148775803 0 0 -0.15318398148775803 0 -81.02779737183485)"  >
<path style="stroke: none; stroke-width: 1; stroke-dasharray: none; stroke-linecap: butt; stroke-dashoffset: 0; stroke-linejoin: miter; stroke-miterlimit: 4; fill: rgb(168,217,169); fill-rule: nonzero; opacity: 1;"  paint-order="stroke"  transform=" translate(-1110.2800000000002, -1018.8275068236828)" d="m 2061.8 1000.45 c 13.76 24.18 20.87 52.18 17.43 81.51 c -81.53 -13.78 -113.38 -43.82 -123.5 -72.43 c -11.65 -28.55 -1.57 -55.678 -34.34 -62.198 c -65.56 -11.879 -157.18 -4.125 -240.12 5.477 c 64.25 19.504 83.78 60.991 85.35 110.681 c -92.73 -11.9 -133.09 -41.59 -159.35 -66.033 c -13.43 -12.207 -30.3 -25.648 -54.39 -32.695 c -6.03 -1.77 -12.5 -3.129 -19.5 -3.981 c -46.31 -6.023 -106.15 9.586 -113.95 64.219 c 28.61 -7.81 57.24 -13.01 86.49 -13.39 c 7.73 -0.24 15.43 -0.27 23 -0.12 c 22.72 0.45 44.28 2.55 61.7 5.67 c -106.02 66.9 -165.87 34.37 -238.09 51.39 c 39.85 20.98 74.14 55.47 110.25 109.65 c -92.55 -33.3 -166.52 -71.6 -157.86 -101.17 c -1.88 -13.97 -75.22 -25.74 -82.34 -34.85 c -7.58 -5.29 -12.51 -18.29 -21.07 -33.77 c -8.31 -14.687 -20.25 -31.851 -35.64 -27.437 c -0.6 0.136 -1.2 0.273 -1.79 0.406 c 1.62 5.254 2.5 10.824 2.5 16.609 c 0 31.032 -25.16 56.182 -56.18 56.182 c -31.03 0 -56.19 -25.15 -56.19 -56.182 c 0 -5.761 0.88 -11.324 2.49 -16.562 c -0.66 -0.149 -1.33 -0.297 -2.01 -0.453 c -15.39 -4.414 -27.34 12.75 -35.64 27.437 c -8.58 15.48 -13.49 28.48 -21.081 33.77 c -7.11 9.11 -80.457 20.88 -82.324 34.85 c 8.652 29.57 -65.313 67.87 -157.872 101.17 c 36.098 -54.18 70.407 -88.67 110.25 -109.65 c -72.21 -17.02 -132.078 15.51 -238.082 -51.39 c 17.414 -3.12 38.977 -5.22 61.696 -5.67 c 7.574 -0.15 15.273 -0.12 22.992 0.12 c 29.266 0.38 57.887 5.58 86.5 13.39 c -7.805 -54.633 -67.637 -70.242 -113.961 -64.219 c -6.988 0.852 -13.461 2.211 -19.48 3.981 c -24.098 7.047 -40.977 20.488 -54.395 32.695 c -26.262 24.443 -66.637 54.133 -159.363 66.033 c 1.574 -49.69 21.109 -91.177 85.355 -110.681 c -82.941 -9.602 -174.562 -17.356 -240.121 -5.477 c -32.769 6.52 -22.687 33.648 -34.34 62.198 c -10.129 28.61 -41.969 58.65 -123.5 72.43 c -3.449 -29.33 3.66 -57.33 17.426 -81.51 c -58.102 13.94 -124.1914 4.01 -158.75 -23.348 c 32.7539 -32.864 60.1602 -47.801 132.219 -36.973 c 60.054 8.68 44.484 -13.195 89.074 -21.695 c 77.285 -14.356 178.547 -5.7 283.277 2.992 c -38.593 -11.504 -73.832 -30.84 -117.632 -48.117 c 50.449 -13.188 149.109 -21.344 213.234 -3.852 c 29.305 8.34 37.98 46.582 60.105 51.348 c 11.067 2.383 21.215 4.312 30.45 5.875 c 63.574 -0.539 128.613 25.472 154.625 87.91 c 2.601 7.8 10.406 15.61 21.89 21.04 c 5.778 2.47 12.055 4 18.758 4.33 c 39.766 -0.33 78.746 -8.19 87.816 -21.31 c 18.625 -11.42 20.149 -65.591 57.484 -79.134 c 12.72 -3.969 31.11 1.914 45.04 13.804 c 9.45 -7.218 21.25 -11.511 34.06 -11.511 c 12.75 0 24.51 4.254 33.92 11.414 c 13.92 -11.821 32.26 -17.664 44.93 -13.707 c 37.34 13.543 38.87 67.714 57.49 79.134 c 9.07 13.12 48.05 20.98 87.82 21.31 c 6.7 -0.33 12.98 -1.86 18.76 -4.33 c 11.48 -5.43 19.28 -13.24 21.88 -21.04 c 26.02 -62.438 91.05 -88.449 154.63 -87.91 c 9.24 -1.563 19.38 -3.492 30.45 -5.875 c 22.13 -4.766 43.99 -42.907 73.31 -51.246 c 64.12 -17.493 149.58 -9.438 200.03 3.75 c -43.8 17.277 -79.04 36.613 -117.64 48.117 c 104.74 -8.692 206 -17.348 283.28 -2.992 c 44.59 8.5 29.02 30.375 89.07 21.695 c 72.07 -10.828 99.47 4.109 132.23 36.973 c -34.57 27.358 -100.66 37.288 -158.76 23.348" stroke-linecap="round" />
</g>
		<g transform="matrix(0.15318398148775803 0 0 -0.15318398148775803 -0.5032542647193736 117.08087184155167)"  >
<path style="stroke: none; stroke-width: 1; stroke-dasharray: none; stroke-linecap: butt; stroke-dashoffset: 0; stroke-linejoin: miter; stroke-miterlimit: 4; fill: rgb(168,217,169); fill-rule: nonzero; opacity: 1;"  paint-order="stroke"  transform=" translate(-1106.9947069828609, -181.6445)" d="m 1105.81 0 c 0 0 -142.134 205.289 2.94 363.289 c 0 0 140.85 -143.758 -2.94 -363.289" stroke-linecap="round" />
</g>
		<g transform="matrix(0.15318398148775803 0 0 -0.15318398148775803 -24.86516340768219 101.21947815149153)"  >
<path style="stroke: none; stroke-width: 1; stroke-dasharray: none; stroke-linecap: butt; stroke-dashoffset: 0; stroke-linejoin: miter; stroke-miterlimit: 4; fill: rgb(0,0,0); fill-rule: nonzero; opacity: 1;"  paint-order="stroke"  transform=" translate(-947.9577834980789, -285.18922795399783)" d="m 1037.86 360.809 c 0 0 -81.801 59.621 -187.544 -158.68 c 0 0 241.004 70.883 187.544 158.68" stroke-linecap="round" />
</g>
		<g transform="matrix(0.15318398148775803 0 0 -0.15318398148775803 23.68765096896516 101.21947815149153)"  >
<path style="stroke: none; stroke-width: 1; stroke-dasharray: none; stroke-linecap: butt; stroke-dashoffset: 0; stroke-linejoin: miter; stroke-miterlimit: 4; fill: rgb(0,0,0); fill-rule: nonzero; opacity: 1;"  paint-order="stroke"  transform=" translate(-1264.9153002376966, -285.18922795399783)" d="m 1175.01 360.809 c 0 0 81.8 59.621 187.55 -158.68 c 0 0 -241.01 70.883 -187.55 158.68" stroke-linecap="round" />
</g>
		<g transform="matrix(0.15318398148775803 0 0 -0.15318398148775803 -37.86152858663485 66.67643789935474)"  >
<path style="stroke: none; stroke-width: 1; stroke-dasharray: none; stroke-linecap: butt; stroke-dashoffset: 0; stroke-linejoin: miter; stroke-miterlimit: 4; fill: rgb(0,0,0); fill-rule: nonzero; opacity: 1;"  paint-order="stroke"  transform=" translate(-863.1162416297386, -510.6895702002747)" d="m 953.02 435.078 c 0 0 -81.805 -59.637 -187.547 158.668 c 0 0 241.007 -70.879 187.547 -158.668" stroke-linecap="round" />
</g>
		<g transform="matrix(0.15318398148775803 0 0 -0.15318398148775803 36.99242430247722 66.67643789935474)"  >
<path style="stroke: none; stroke-width: 1; stroke-dasharray: none; stroke-linecap: butt; stroke-dashoffset: 0; stroke-linejoin: miter; stroke-miterlimit: 4; fill: rgb(0,0,0); fill-rule: nonzero; opacity: 1;"  paint-order="stroke"  transform=" translate(-1351.7701606760597, -510.6895702002747)" d="m 1261.87 435.078 c 0 0 81.8 -59.637 187.54 158.668 c 0 0 -241 -70.879 -187.54 -158.668" stroke-linecap="round" />
</g>
		<g transform="matrix(0.15318398148775803 0 0 -0.15318398148775803 0 81.02755258303685)"  >
<path style="stroke: none; stroke-width: 1; stroke-dasharray: none; stroke-linecap: butt; stroke-dashoffset: 0; stroke-linejoin: miter; stroke-miterlimit: 4; fill: rgb(168,217,169); fill-rule: nonzero; opacity: 1;"  paint-order="stroke"  transform=" translate(-1110.2800000000002, -417.0040911815104)" d="m 2061.8 435.391 c 13.76 -24.18 20.87 -52.192 17.43 -81.52 c -81.52 13.777 -113.38 43.82 -123.5 72.43 c -11.65 28.547 -1.57 55.676 -34.33 62.191 c -65.57 11.883 -157.19 4.129 -240.13 -5.48 c 64.25 -19.492 83.78 -60.973 85.36 -110.672 c -92.74 11.898 -133.1 41.59 -159.36 66.035 c -13.43 12.207 -30.3 25.645 -54.39 32.703 c -6.03 1.758 -12.5 3.125 -19.5 3.965 c -46.31 6.035 -106.15 -9.578 -113.95 -64.215 c 28.61 7.82 57.24 13.012 86.49 13.383 c 7.73 0.25 15.43 0.277 23.01 0.129 c 22.72 -0.461 44.27 -2.559 61.69 -5.668 c -106.02 -66.902 -165.87 -34.371 -238.09 -51.402 c 39.85 -20.969 74.14 -55.461 110.25 -109.641 c -92.55 33.293 -166.52 71.59 -157.86 101.172 c -1.87 13.969 -75.22 25.758 -82.34 34.847 c -7.58 5.301 -12.51 18.301 -21.07 33.774 c -8.31 14.683 -20.25 31.84 -35.64 27.437 c -0.6 -0.136 -1.2 -0.273 -1.79 -0.402 c 1.63 -5.254 2.5 -10.84 2.5 -16.621 c 0 -31.016 -25.16 -56.176 -56.18 -56.176 c -31.03 0 -56.19 25.16 -56.19 56.176 c 0 5.773 0.88 11.34 2.49 16.562 c -0.66 0.157 -1.33 0.305 -2.01 0.461 c -15.39 4.403 -27.34 -12.754 -35.64 -27.437 c -8.58 -15.473 -13.49 -28.473 -21.081 -33.774 c -7.11 -9.089 -80.457 -20.878 -82.324 -34.847 c 8.652 -29.582 -65.313 -67.879 -157.872 -101.172 c 36.098 54.18 70.407 88.672 110.25 109.641 c -72.21 17.031 -132.078 -15.5 -238.082 51.402 c 17.414 3.109 38.977 5.207 61.696 5.668 c 7.574 0.148 15.273 0.121 22.992 -0.129 c 29.266 -0.371 57.887 -5.563 86.5 -13.383 c -7.805 54.637 -67.637 70.25 -113.961 64.215 c -6.988 -0.84 -13.461 -2.207 -19.48 -3.965 C 643.59 464.02 626.711 450.582 613.293 438.375 C 587.031 413.93 546.656 384.238 453.93 372.34 c 1.574 49.699 21.109 91.18 85.355 110.672 c -82.941 9.609 -174.562 17.363 -240.121 5.48 c -32.769 -6.515 -22.687 -33.644 -34.34 -62.191 c -10.129 -28.61 -41.969 -58.653 -123.5 -72.43 c -3.449 29.328 3.66 57.34 17.426 81.52 C 100.648 421.43 34.5586 431.371 0 458.734 c 32.7539 32.852 60.1602 47.793 132.219 36.965 c 60.054 -8.683 44.484 13.203 89.074 21.699 c 77.285 14.356 178.547 5.692 283.277 -3 c -38.593 11.504 -73.832 30.84 -117.632 48.125 c 50.449 13.184 149.109 21.348 213.234 3.86 c 29.305 -8.352 37.98 -46.594 60.105 -51.36 c 11.067 -2.371 21.215 -4.304 30.45 -5.867 c 63.574 0.535 128.613 -25.48 154.625 -87.906 c 2.601 -7.82 10.406 -15.621 21.89 -21.039 c 5.778 -2.481 12.055 -4.012 18.758 -4.34 c 39.766 0.348 78.746 8.188 87.816 21.301 c 18.625 11.418 20.149 65.598 57.484 79.133 c 12.72 3.984 31.11 -1.914 45.04 -13.801 c 9.45 7.219 21.25 11.516 34.06 11.516 c 12.75 0 24.51 -4.25 33.93 -11.418 c 13.91 11.828 32.25 17.668 44.92 13.703 c 37.34 -13.535 38.87 -67.715 57.49 -79.133 c 9.07 -13.113 48.05 -20.953 87.82 -21.301 c 6.7 0.328 12.98 1.859 18.76 4.34 c 11.48 5.418 19.28 13.219 21.88 21.039 c 26.02 62.426 91.05 88.441 154.63 87.906 c 9.24 1.563 19.38 3.496 30.45 5.867 c 22.13 4.766 43.99 42.911 73.31 51.25 c 64.12 17.493 149.59 9.434 200.03 -3.75 c -43.8 -17.285 -79.04 -36.621 -117.64 -48.125 c 104.74 8.692 206 17.356 283.28 3 c 44.59 -8.496 29.03 -30.382 89.07 -21.699 c 72.07 10.828 99.47 -4.113 132.23 -36.965 c -34.57 -27.363 -100.66 -37.304 -158.76 -23.343" stroke-linecap="round" />
</g>
</g>
</g>
</svg>